<?xml version="1.0" encoding="UTF-8" standalone="no"?>
<!-- Created with Inkscape (http://www.inkscape.org/) -->

<svg
   xmlns:dc="http://purl.org/dc/elements/1.1/"
   xmlns:cc="http://creativecommons.org/ns#"
   xmlns:rdf="http://www.w3.org/1999/02/22-rdf-syntax-ns#"
   xmlns:svg="http://www.w3.org/2000/svg"
   xmlns="http://www.w3.org/2000/svg"
   xmlns:sodipodi="http://sodipodi.sourceforge.net/DTD/sodipodi-0.dtd"
   xmlns:inkscape="http://www.inkscape.org/namespaces/inkscape"
   width="210mm"
   height="297mm"
   viewBox="0 0 744.09448819 1052.3622047"
   id="svg2"
   version="1.1"
   inkscape:version="0.91 r"
   sodipodi:docname="logo.svg">
  <defs
     id="defs4" />
  <sodipodi:namedview
     id="base"
     pagecolor="#ffffff"
     bordercolor="#666666"
     borderopacity="1.0"
     inkscape:pageopacity="0.0"
     inkscape:pageshadow="2"
     inkscape:zoom="0.98994949"
     inkscape:cx="544.34922"
     inkscape:cy="590.96949"
     inkscape:document-units="px"
     inkscape:current-layer="layer1"
     showgrid="false"
     inkscape:window-width="1680"
     inkscape:window-height="998"
     inkscape:window-x="0"
     inkscape:window-y="0"
     inkscape:window-maximized="1" />
  <metadata
     id="metadata7">
    <rdf:RDF>
      <cc:Work
         rdf:about="">
        <dc:format>image/svg+xml</dc:format>
        <dc:type
           rdf:resource="http://purl.org/dc/dcmitype/StillImage" />
        <dc:title></dc:title>
      </cc:Work>
    </rdf:RDF>
  </metadata>
  <g
     inkscape:label="Ebene 1"
     inkscape:groupmode="layer"
     id="layer1">
    <g
       id="g4217">
      <text
         sodipodi:linespacing="125%"
         id="text4136"
         y="325.0524"
         x="243.44678"
         style="font-style:normal;font-weight:normal;font-size:40px;line-height:125%;font-family:sans-serif;letter-spacing:0px;word-spacing:0px;fill:#000000;fill-opacity:1;stroke:none;stroke-width:1px;stroke-linecap:butt;stroke-linejoin:miter;stroke-opacity:1"
         xml:space="preserve"><tspan
           style="font-style:normal;font-variant:normal;font-weight:normal;font-stretch:normal;font-family:'Arial Black';-inkscape-font-specification:'Arial Black, '"
           y="325.0524"
           x="243.44678"
           id="tspan4138"
           sodipodi:role="line">ProTime-</tspan></text>
      <g
         transform="translate(98.571429,-103.48721)"
         id="g4211">
        <path
           style="clip-rule:evenodd;fill-rule:evenodd"
           d="m 368.66929,385.24948 c -18.4081,5.22131 -30.02294,27.34918 -23.83294,45.48713 5.31057,18.70236 27.38204,29.9695 45.64258,23.25976 18.29415,-5.67163 29.08226,-27.45343 22.43945,-45.43164 -1.35385,-3.95909 -3.41012,-7.67598 -6.04297,-10.92773 3.30328,-1.50752 6.3204,-7.25307 1.89844,-9.29102 -3.36841,-1.84436 -5.71104,3.29466 -7.80859,3.48047 -4.19341,-3.25937 -9.11579,-5.58692 -14.31055,-6.70508 m -7.63477,6.90039 c 17.12313,-0.59998 31.48004,17.03569 27.48047,33.67774 -2.89547,17.09815 -23.4818,27.63646 -39.04297,19.92773 -15.7025,-6.51495 -21.63889,-28.26599 -11.29687,-41.8125 5.15475,-7.32488 13.89489,-11.86202 22.85937,-11.79297 z"
           id="path4141"
           inkscape:connector-curvature="0"
           sodipodi:nodetypes="ccccccccccccc" />
        <path
           style="clip-rule:evenodd;fill:#ff0000;fill-rule:evenodd"
           d="m 385.37724,384.73915 c -0.69725,-3.33717 0.66601,-3.85536 3.47227,-4.2396 4.26281,-1.74096 1.80837,-8.54459 -2.60742,-7.40625 -5.96027,10e-4 -11.92065,-0.003 -17.88086,0.002 l 0,-5e-5 c -4.93962,-0.11502 -4.83596,7.99971 0.10156,7.75391 2.63024,-0.2347 2.94662,2.68027 1.08821,4.00201"
           id="path4141-5"
           inkscape:connector-curvature="0"
           sodipodi:nodetypes="ccccccc" />
        <text
           xml:space="preserve"
           style="font-style:normal;font-weight:normal;font-size:40px;line-height:125%;font-family:sans-serif;letter-spacing:0px;word-spacing:0px;fill:#ff0000;fill-opacity:1;stroke:none;stroke-width:1px;stroke-linecap:butt;stroke-linejoin:miter;stroke-opacity:1"
           x="363.34961"
           y="431.80139"
           id="text4136-2"
           sodipodi:linespacing="125%"><tspan
             sodipodi:role="line"
             id="tspan4138-9"
             x="363.34961"
             y="431.80139"
             style="font-style:normal;font-variant:normal;font-weight:normal;font-stretch:normal;font-family:'Arial Black';-inkscape-font-specification:'Arial Black, ';fill:#ff0000">R</tspan></text>
      </g>
    </g>
  </g>
</svg>
